<?xml version="1.0"?><svg width="800" height="800" xmlns="http://www.w3.org/2000/svg">
 <title>anonymous svg</title>
 <metadata id="metadata7">image/svg+xml</metadata>
 <g>
  <title>Layer 1</title>
  <g id="layer1">
   <path d="m365.012634,467.443787c6.589539,0 7.281036,-0.457794 19.28244,15.023071c7.025269,9.058624 22.218811,28.382111 30.276611,39.992004l120.696014,-0.44519c15.038818,-0.678833 16.699646,-2.409119 22.922852,-6.876892c11.376221,-8.1651 21.991577,-21.972565 46.903687,-61.033142c7.52417,-11.799316 17.132202,-26.689758 21.347412,-33.080414c6.403259,-10.29007 4.063538,-11.954041 20.971558,-15.326172c-12.244385,30.361908 -27.902161,66.135529 -38.384888,82.036407c-20.624268,31.28064 -53.480469,64.815735 -118.577301,85.733704c50.638947,-8.777649 66.675507,-24.1922 100.409515,-51.72821c-22.9198,47.320374 -54.879333,90.094177 -84.432831,133.287842c66.425934,-70.663391 130.117706,-148.989716 164.145416,-240.94989c5.894897,-18.022644 12.588623,-42.732697 11.802368,-43.515747c-12.512939,14.012695 -27.725342,29.566223 -60.006958,30.311371c-48.839172,1.127167 -86.450439,-13.779083 -121.722137,-40.437225c-3.713074,2.709045 -8.231445,5.073975 -8.313538,10.605774c-0.075806,5.190826 5.620239,10.915222 16.762817,17.208008c18.300446,10.334259 65.26413,22.544037 86.693573,22.544037c2.712219,0 4.925598,0.255798 4.925598,0.580994c0,0.328369 -12.591797,16.336548 -27.984253,35.546326c-23.627136,29.480988 -28.619019,35.126434 -32.022705,36.297852c-7.896729,2.72171 -52.024933,0.92511 -75.743622,-3.078461c-11.373077,-1.919739 -16.456512,-4.02887 -22.544067,-9.374451c-11.032043,-11.259369 -19.421356,-25.16153 -30.687042,-35.88736c-12.490814,4.71405 -25.761505,9.61438 -46.733154,9.85434c-16.36496,0.183136 -31.641205,-4.227814 -46.732178,-9.85434c-11.264771,10.72583 -19.655334,24.627991 -30.687378,35.88736c-6.088501,5.345581 -11.170685,7.454712 -22.545013,9.374451c-23.719269,4.003571 -67.845322,5.800171 -75.743301,3.078461c-3.403702,-1.171417 -8.39624,-6.816864 -32.021744,-36.297852c-15.394043,-19.209778 -27.984604,-35.217957 -27.984604,-35.546326c0,-0.325195 2.213028,-0.580994 4.926529,-0.580994c21.426651,0 68.392502,-12.209778 86.690765,-22.544037c11.143524,-6.292786 16.839203,-12.017181 16.763428,-17.208008c-0.080841,-5.531799 -4.59787,-7.896729 -8.313202,-10.605774c-35.271042,26.658142 -72.882675,41.564392 -121.723083,40.437225c-32.28064,-0.745148 -47.492188,-16.298676 -60.006138,-30.311371c-0.784332,0.783051 5.90728,25.493103 11.802891,43.515747c34.027306,91.960175 97.720627,170.286499 164.144409,240.94989c-29.551956,-43.193665 -61.510544,-85.967468 -84.432846,-133.287842c33.734634,27.536011 49.772797,42.950562 100.40947,51.72821c-65.097092,-20.917969 -97.951096,-54.453064 -118.575447,-85.733704c-10.48423,-15.900879 -26.139397,-51.6745 -38.385201,-82.036407c16.908371,3.372131 14.567467,5.036102 20.97197,15.326172c4.214233,6.390656 13.821045,21.281097 21.347412,33.080414c24.911499,39.060577 35.5271,52.868042 46.90332,61.033142c6.223602,4.467773 7.882538,6.198059 22.921692,6.876892l120.696564,0.44519c8.05777,-11.609894 23.251038,-30.93338 30.276611,-39.992004c12.001404,-15.480865 12.71814,-15.023071 19.307709,-15.023071zm-201.549881,-460.922337c-42.141922,0.42032 -80.33419,24.204241 -99.588531,87.785664c34.166885,-18.089256 78.246201,-17.71257 116.078217,-4.721313c50.444687,17.322609 93.597305,57.056992 130.891647,108.825592c-4.1492,-30.0439 -16.637787,-61.230164 -24.598022,-77.351379c7.355896,1.195717 17.729645,4.782249 22.30603,-0.855339c4.941711,-6.087852 1.056793,-12.272621 -3.831848,-17.379135c-39.472656,-41.232899 -92.701569,-68.086849 -150.255234,-70.3722c37.183182,-1.720228 84.0439,4.447872 125.726089,21.108383c-34.081665,-27.213522 -77.140488,-47.435132 -116.728348,-47.040272zm403.076065,0c-39.587891,-0.39486 -82.648895,19.82675 -116.730225,47.040272c41.681213,-16.660511 88.543884,-22.828611 125.725708,-21.108383c-57.553589,2.285351 -110.781616,29.139301 -150.255798,70.3722c-4.887726,5.106514 -8.771332,11.291283 -3.829987,17.379135c4.575165,5.637589 14.950439,2.051056 22.304138,0.855339c-7.9599,16.121216 -20.44754,47.30748 -24.596375,77.351379c37.295563,-51.7686 80.448181,-91.502983 130.891327,-108.825592c37.832275,-12.991257 81.910095,-13.367943 116.079834,4.721313c-19.257202,-63.581423 -57.44635,-87.365344 -99.588623,-87.785664zm-378.717758,152.307758c-18.856506,0.186279 -34.66481,2.98439 -46.595795,8.176483c-23.562012,10.253448 -38.022095,49.592499 -59.150688,51.658417c-18.980888,1.856247 -29.901646,-24.456833 -37.940147,-38.453094c5.020969,15.873352 13.454529,32.19664 24.11882,43.687469c-10.895161,6.932785 -22.554199,13.9328 -30.516159,24.153076c14.139038,-9.654129 28.280701,-19.182632 41.635056,-17.652863c-15.746105,8.648514 -38.009735,20.67485 -48.785156,40.232315c18.73856,-18.42804 41.384132,-35.176651 68.661499,-33.698029c7.879684,0.427231 10.244919,1.078598 19.774033,5.610764c24.081421,13.800522 50.428909,14.141861 77.077637,13.855453l0,-16.318863c-18.944595,-0.047989 -37.853165,-2.372498 -56.414139,-6.089432c-7.803894,-1.984131 -21.236877,-8.362473 -23.947533,-11.358231c-1.843941,-2.03717 -1.819633,-2.370926 0.54686,-7.971252c6.140572,-14.528915 16.106377,-26.118256 28.600655,-33.937317c15.280701,-9.562622 33.452667,-11.310867 51.04303,-10.810745c0.056198,0.001266 0.114944,-0.001892 0.171127,0l0,-10.947433c-0.089371,-0.003159 -0.260483,-0.031906 -0.342285,-0.034103c-1.399963,-0.038208 -2.769684,-0.090927 -4.139374,-0.102615c-1.284119,-0.009476 -2.540451,-0.012634 -3.79744,0l0,0zm350.559799,0c-1.367126,0.012619 -2.737488,0.064728 -4.139343,0.102615c-0.082092,0.002197 -0.252563,0.03157 -0.341003,0.034103l0,10.947433c0.056763,-0.002197 0.113647,0.000961 0.170532,0c17.589966,-0.500443 35.760986,1.247833 51.042969,10.810745c12.493896,7.819061 22.461914,19.408081 28.599976,33.937317c2.368042,5.600327 2.390198,5.934082 0.549438,7.971252c-2.71228,2.995758 -16.143982,9.3741 -23.949097,11.358231c-18.562622,3.716934 -37.469238,6.041443 -56.413818,6.089432l0,16.318863c26.648682,0.285736 52.994324,-0.054932 77.07605,-13.855759c9.529053,-4.532166 11.894043,-5.183228 19.774902,-5.610458c27.2771,-1.478622 49.922241,15.269684 68.661499,33.697693c-10.776245,-19.557449 -33.039307,-31.583466 -48.7854,-40.231979c13.355957,-1.52977 27.494873,7.998413 41.637024,17.652863c-7.963074,-10.220276 -19.623352,-17.220612 -30.516541,-24.153076c10.662598,-11.490829 19.09613,-27.814117 24.116455,-43.687469c-8.035767,13.995941 -18.957275,40.309021 -37.939697,38.453094c-21.126343,-2.065918 -35.587402,-41.404968 -59.151367,-51.658737c-11.928711,-5.191772 -27.738037,-7.990204 -46.594238,-8.176468c-1.256592,-0.012329 -2.513306,-0.009491 -3.79834,0l0,0.000305zm-330.135971,1.642181l0,10.639603c28.484146,4.512909 61.086807,20.720642 68.593277,35.818832c-22.189117,-15.429413 -47.879578,-27.915802 -75.298721,-27.505646c-17.800003,0.266174 -40.044113,4.816345 -57.405869,14.437057c-8.762207,4.855469 -21.146278,15.749252 -21.347717,19.124237c-0.792511,13.259613 58.585831,20.519821 79.917114,19.602875c24.982239,-1.064346 50.157684,-2.236069 72.390411,-13.1371c-12.660034,17.158432 -42.586792,19.66983 -66.848495,20.38974l0,16.250381c38.067551,-2.154633 84.839859,-19.392029 84.672501,-41.703384c-0.256378,-34.164337 -57.725403,-49.366425 -84.672501,-53.916595zm313.508957,0c-26.945587,4.550171 -84.41394,19.752258 -84.669769,53.916595c-0.167297,22.311356 46.603729,39.548752 84.669769,41.703384l0,-16.250381c-24.261749,-0.71991 -54.187927,-3.231308 -66.846069,-20.38974c22.231506,10.901031 47.40567,12.072754 72.390503,13.1371c21.331543,0.916946 80.707031,-6.343262 79.917664,-19.602875c-0.202026,-3.374985 -12.588684,-14.268768 -21.350525,-19.124237c-17.359619,-9.620712 -39.603638,-14.170883 -57.405212,-14.437057c-27.41922,-0.410156 -53.108032,12.076233 -75.298431,27.505646c7.505219,-15.09819 40.108765,-31.305923 68.592072,-35.818832l0,-10.639603zm-199.175537,17.686981c-0.115234,66.398239 -10.458984,112.716202 -52.548157,163.667007c-9.336273,11.300446 -20.404617,23.573425 -20.903152,39.00061c-0.374512,11.597229 5.051575,22.092499 12.042435,32.158417c-4.083557,-9.885925 -6.792282,-19.550812 -5.644852,-30.31134c1.007523,-9.447021 7.642563,-16.049194 26.992538,-35.101135c18.615875,-18.328918 22.119385,-22.698792 25.487427,-19.055115c1.489685,1.610291 1.2677,10.905762 -0.821259,27.779053c-3.008698,24.302765 -1.966736,40.951904 3.215851,51.213531c5.321838,10.536377 19.33136,19.140381 38.384247,23.60498c4.110962,0.963043 10.028076,1.231415 16.216553,1.231415c6.188538,0 12.105621,-0.268372 16.216614,-1.231415c19.051941,-4.4646 33.061432,-13.068604 38.384827,-23.60498c5.181366,-10.261627 6.223297,-26.910767 3.214325,-51.213531c-2.087097,-16.873291 -2.311279,-26.168762 -0.820953,-27.779053c3.368927,-3.643677 6.873718,0.726196 25.486755,19.055115c19.351929,19.051941 25.985687,25.654114 26.99292,35.101135c1.149261,10.760529 -1.559753,20.425415 -5.642303,30.31134c6.990509,-10.065918 12.414948,-20.561188 12.042389,-32.158417c-0.49884,-15.427185 -11.568787,-27.700165 -20.905365,-39.00061c-42.088531,-50.950806 -52.432281,-97.268768 -52.545929,-163.667007c-7.293701,34.86972 -6.267487,86.996994 -4.928772,131.918106c0.846161,28.354675 3.094299,46.936157 6.090729,64.112579c2.83847,16.279694 2.424896,28.666321 -3.283752,33.320343c-10.820557,8.821899 -25.928864,11.995117 -40.301483,12.00769c-14.372559,0.012695 -29.474304,-3.151093 -40.300446,-12.00769c-5.702667,-4.663513 -6.12323,-17.040649 -3.284363,-33.320343c2.995087,-17.176422 5.244141,-35.757904 6.089691,-64.112579c1.339386,-44.921112 2.36557,-97.048386 -4.926514,-131.918106zm-35.408386,233.045242c-1.562897,0.05365 -3.030518,0.277832 -4.34494,0.68515c-2.475098,0.767273 -2.692017,4.628784 0.410767,8.723999c3.534729,4.199341 7.309448,6.201202 15.463226,8.209351c7.980408,1.967041 12.378387,2.03653 12.897797,-0.511536c1.961365,-9.630157 -13.486328,-17.479523 -24.426849,-17.106964zm155.660706,0c-10.94046,-0.372559 -26.389801,7.476807 -24.425842,17.106964c0.517792,2.548065 4.916107,2.478577 12.894928,0.511536c8.15564,-2.008148 11.928772,-4.01001 15.465118,-8.209351c3.103729,-4.095215 2.885864,-7.956726 0.410431,-8.723999c-1.313507,-0.407318 -2.781677,-0.6315 -4.344635,-0.68515zm-164.213562,115.704041c-1.782379,1.619812 -4.512299,3.135315 -3.11322,5.336121c1.522217,2.393311 16.520905,6.068542 37.700623,7.082092c34.426514,1.648193 69.161377,2.276489 103.589996,0c21.170563,-1.401917 36.18103,-4.688782 37.702881,-7.082092c1.398712,-2.200806 -1.332458,-3.716309 -3.11322,-5.336121l-172.767059,0zm43.34552,65.614563c13.184174,15.477783 20.73111,23.54187 20.663483,35.341187c-0.125916,22.124146 -9.710663,24.751099 -8.723907,59.972229c0.792511,28.281128 5.373566,46.710999 8.005615,64.657898c6.263092,42.71051 13.575684,43.379883 23.092163,43.379883c9.51651,0 16.829132,-0.669373 23.093475,-43.379883c2.630157,-17.946899 7.211578,-36.37677 8.00412,-64.657898c0.988251,-35.22113 -8.597748,-37.848083 -8.723999,-59.972229c-0.066345,-11.799316 7.47995,-19.863403 20.665344,-35.341187l-86.076294,0z" fill="#000000" id="svg_2"/>
  </g>
 </g>
</svg>